<svg xmlns="http://www.w3.org/2000/svg" version="1.1" viewBox="0 0 512 512"><path d="M269.37 478.33c-.26 0-.53 0-.79-.03-4.92-.36-8.96-4.04-9.78-8.9l-25.65-151.75-34.39-207.26-24.21 59.84a10.711 10.711 0 0 1-9.01 6.66l-86.57 7.48c-5.24.45-10.04-2.97-11.31-8.07l-8.16-32.54-38.32 174.4c-1.27 5.78-6.98 9.43-12.76 8.16-5.78-1.27-9.43-6.98-8.16-12.76L48.35 94.68c1.07-4.86 5.33-8.34 10.31-8.41 4.98-.06 9.34 3.28 10.55 8.11l17.02 67.87 70.93-6.13 36.01-89.03a10.71 10.71 0 0 1 11.11-6.63c4.77.53 8.61 4.16 9.39 8.89l40.61 244.77 18.37 108.7 18.58-57.19c1.12-3.44 3.9-6.09 7.39-7.03l141.08-38.13c5.3-1.43 10.82 1.37 12.79 6.5l24.14 62.76 13.94-345.77c.24-5.91 5.23-10.5 11.14-10.27 5.91.24 10.51 5.22 10.27 11.14l-16.03 397.59c-.2 5.08-3.95 9.31-8.96 10.14a10.7 10.7 0 0 1-11.74-6.72L435.97 343.7l-126.15 34.09-30.27 93.16a10.71 10.71 0 0 1-10.18 7.4Z" fill="#ffca87"/><path d="M72.96 405.17a10.7 10.7 0 0 1-9.93-6.7c-1.71-4.22-.56-9.06 2.87-12.07l92-80.74-93.46-40.31c-4.39-1.9-7-6.47-6.38-11.22.62-4.75 4.31-8.51 9.04-9.21l114.36-17.1c5.86-.87 11.3 3.16 12.18 9.01.87 5.85-3.16 11.3-9.01 12.18l-77.21 11.55 74.53 32.15c3.37 1.46 5.77 4.54 6.34 8.17.57 3.63-.75 7.3-3.52 9.72l-81.68 71.67 79.43-3.86c5.91-.28 10.93 4.27 11.22 10.18s-4.27 10.93-10.18 11.22l-110.08 5.34c-.17 0-.35.01-.52.01ZM363.14 284.4c-46.87 0-84.99-38.13-84.99-84.99s38.13-84.99 84.99-84.99c46.87 0 84.99 38.13 84.99 84.99 0 46.87-38.13 84.99-84.99 84.99Zm0-148.56c-35.05 0-63.57 28.52-63.57 63.57s28.52 63.57 63.57 63.57 63.57-28.52 63.57-63.57-28.52-63.57-63.57-63.57Z" fill="#ffca87"/></svg>