<svg xmlns="http://www.w3.org/2000/svg" version="1.1" viewBox="0 0 512 512"><path d="M107.63 413.25c-.7-.69-1.48-1.15-2.34-1.38-.87-.23-1.72-.22-2.57.02-.84.24-1.59.69-2.24 1.34-.65.65-1.1 1.4-1.33 2.25-.24.85-.24 1.7 0 2.57.23.86.69 1.64 1.39 2.34.7.69 1.47 1.15 2.33 1.37.86.22 1.71.21 2.55-.03.84-.24 1.59-.69 2.24-1.34.65-.65 1.1-1.4 1.33-2.25.24-.85.24-1.7.02-2.55-.22-.86-.68-1.63-1.38-2.32Zm24.62 27.4.24-15.14-4.35-3.1-15.08 21.13 5.94 4.24 7.1-9.96-.07 7.45 3.84 2.74 7-2.46-7.08 9.93 5.93 4.23 15.08-21.13-4.34-3.1-14.21 5.17zm49.32 13.79c-1.31-1.31-2.91-2.39-4.79-3.23-1.88-.84-3.75-1.3-5.61-1.39-1.85-.09-3.61.16-5.27.75-1.66.59-3.14 1.49-4.44 2.7-1.3 1.2-2.35 2.7-3.13 4.47-.78 1.76-1.18 3.53-1.2 5.33-.02 1.8.31 3.52 1 5.15.68 1.63 1.68 3.11 2.99 4.44 1.31 1.32 2.9 2.41 4.79 3.24 1.86.83 3.71 1.28 5.56 1.37 1.84.09 3.6-.17 5.26-.78 1.66-.6 3.15-1.51 4.46-2.73s2.35-2.7 3.13-4.46c.79-1.78 1.2-3.56 1.22-5.34.03-1.78-.3-3.49-.97-5.12-.67-1.63-1.67-3.1-2.98-4.41Zm-3.37 8.96c-.07.91-.32 1.86-.76 2.84-.58 1.31-1.34 2.35-2.26 3.1-.93.76-1.97 1.2-3.13 1.32-1.16.12-2.36-.09-3.62-.65-.94-.42-1.72-.94-2.34-1.58a5.859 5.859 0 0 1-1.36-2.16c-.29-.81-.39-1.67-.32-2.6.07-.92.33-1.89.78-2.89.58-1.31 1.33-2.34 2.26-3.09a5.69 5.69 0 0 1 3.11-1.29c1.15-.11 2.36.11 3.61.67.94.42 1.72.94 2.34 1.58.62.63 1.07 1.35 1.36 2.16.29.81.4 1.67.33 2.58Zm31.29 16.13-1.56-16.72-7.59-1.81 3.32 27.48 6.81 1.63 15.52-22.99-7.49-1.79-9.01 14.2zm37.78-10.22-7.35-.44-1.58 25.91 5.95.36 14.04.86.37-6.04-12.64-.77.25-4.23 11.29.69.36-5.89-11.29-.69.23-3.71 12.42.75.37-6.04-12.42-.76zm50.62-2.2-6.95 13.44-10.08-11.3-5.3.67 3.24 25.76 7.23-.91-1.52-12.14 5 5.53 4.67-.59 3.49-6.55 1.52 12.1 7.23-.91-3.23-25.76-5.3.66zm46.3 8.17-12.05 3.91-1.3-4.03 10.75-3.48-1.82-5.62-10.76 3.48-1.14-3.54 11.84-3.83-1.87-5.76-13.17 4.27-5.67 1.84 8 24.69 7-2.27 12.06-3.9-1.87-5.76zm22.65-32.67 6.5 12.11-16.23-6.88-4.55 2.44 12.29 22.87 6.49-3.49-6.29-11.7 15.7 6.65 4.86-2.61-12.28-22.87-6.49 3.48zm40.25-20.73-3.85-4.86-18.11 14.32 3.85 4.87 6.15-4.87 12.26 15.5 5.78-4.56-12.26-15.51 6.18-4.89zm20.25-11.36c-.66-.64-1.42-1.08-2.27-1.3-.85-.23-1.7-.22-2.55.01-.85.23-1.62.7-2.31 1.4-.68.7-1.13 1.49-1.35 2.36-.22.87-.2 1.72.05 2.56.25.84.71 1.58 1.37 2.23.66.64 1.42 1.08 2.27 1.3.85.23 1.7.22 2.57-.02.86-.24 1.63-.71 2.32-1.42.68-.7 1.13-1.49 1.34-2.35.21-.86.19-1.71-.06-2.55-.25-.84-.71-1.58-1.37-2.23ZM131.86 73.15c.65.98 1.48 1.72 2.47 2.23 1 .51 2.06.72 3.2.65 1.14-.07 2.22-.45 3.26-1.15 1.04-.69 1.8-1.55 2.29-2.56s.69-2.08.6-3.19c-.09-1.11-.46-2.16-1.11-3.14a6.508 6.508 0 0 0-2.47-2.23c-1-.51-2.06-.73-3.18-.67-1.12.06-2.21.44-3.24 1.14-1.04.69-1.81 1.55-2.31 2.58-.5 1.02-.71 2.09-.62 3.21.09 1.11.46 2.16 1.11 3.14Zm45.65-6.44-5.76-14.47 7.93 5.21 5.57-2.22 2.19-9.19 5.75 14.42 8.62-3.44-12.24-30.69-6.31 2.51-4.25 18.78-16.04-10.69-6.32 2.52 12.24 30.69 8.62-3.43zm53-15.46 15.96-2.24-1.07-7.63-15.96 2.24-.75-5.33 14.25-2-1.05-7.45-14.25 2-.66-4.68 15.69-2.21-1.07-7.63-15.69 2.21-9.28 1.3 4.59 32.72 9.29-1.3zm38.47-7c1.5 1.69 3.3 3.06 5.42 4.12s4.48 1.71 7.1 1.94c2.58.23 5 .02 7.26-.63 2.25-.65 4.26-1.68 6.02-3.1 1.76-1.41 3.17-3.12 4.25-5.12 1.07-2 1.72-4.22 1.94-6.65.22-2.47-.02-4.78-.72-6.94s-1.79-4.08-3.27-5.77c-1.48-1.69-3.28-3.05-5.4-4.09-2.12-1.04-4.48-1.68-7.1-1.92-2.61-.23-5.06-.02-7.33.63-2.27.65-4.28 1.68-6.04 3.07-1.76 1.4-3.17 3.09-4.24 5.07-1.07 1.99-1.72 4.21-1.94 6.68-.22 2.43.03 4.74.75 6.92.72 2.18 1.82 4.11 3.32 5.79Zm5.46-11.86c.16-1.82.65-3.37 1.45-4.65.8-1.28 1.88-2.22 3.22-2.83 1.34-.61 2.88-.84 4.63-.68 1.31.12 2.46.43 3.47.94 1.01.51 1.85 1.19 2.52 2.04.68.85 1.16 1.84 1.45 2.97.29 1.13.38 2.37.26 3.73-.16 1.82-.65 3.37-1.45 4.67-.81 1.3-1.88 2.25-3.22 2.88-1.34.63-2.88.86-4.63.71-1.31-.12-2.46-.43-3.47-.94a7.416 7.416 0 0 1-2.52-2.04c-.68-.85-1.16-1.85-1.45-2.99-.29-1.14-.37-2.41-.25-3.8Zm66.98 12.07-1.41 19.09 7.3 2.7 21.31-27.35-8.66-3.2-11.2 15.11 1.39-18.74-7.25-2.68-11.09 15.07 1.33-18.68-8.75-3.24-1.61 34.63 7.29 2.7 11.35-15.41zm40.04 28.45c1.05.68 2.14 1.04 3.26 1.08 1.12.04 2.18-.2 3.17-.72.99-.52 1.8-1.28 2.44-2.27.64-.99.99-2.04 1.06-3.16.07-1.12-.15-2.18-.65-3.18-.5-1.01-1.28-1.85-2.33-2.53-1.05-.68-2.14-1.04-3.28-1.09-1.14-.05-2.2.18-3.19.71-.99.52-1.8 1.28-2.44 2.27-.64.99-.99 2.04-1.06 3.16-.07 1.12.16 2.18.67 3.19.52 1.01 1.3 1.86 2.35 2.54Zm48.56 31.27c.16-4.02-2.96-7.41-6.98-7.57-4.01-.16-7.41 2.96-7.57 6.98l-9.48 235.06-16.41-42.66a7.29 7.29 0 0 0-8.7-4.42l-95.91 25.92a7.275 7.275 0 0 0-5.03 4.78l-12.63 38.88-12.49-73.89-27.61-166.4a7.28 7.28 0 0 0-6.39-6.05 7.273 7.273 0 0 0-7.55 4.51l-24.48 60.52-48.22 4.17L129 137.87a7.28 7.28 0 0 0-7.17-5.51 7.293 7.293 0 0 0-7.01 5.72l-32.7 148.81a7.29 7.29 0 0 0 5.55 8.68 7.29 7.29 0 0 0 8.68-5.55l26.05-118.56 5.55 22.12a7.276 7.276 0 0 0 7.69 5.48l58.85-5.09a7.27 7.27 0 0 0 6.12-4.52l16.46-40.68 23.38 140.9 17.44 103.16a7.283 7.283 0 0 0 7.19 6.07c3.13 0 5.94-2.01 6.92-5.03l20.58-63.33 85.76-23.18 26.7 69.43a7.285 7.285 0 0 0 7.98 4.57 7.277 7.277 0 0 0 6.09-6.89l10.9-270.28Z" fill="#ffca87"/><path d="M213.61 234.71c-.59-3.98-4.3-6.72-8.28-6.13l-77.74 11.63a7.282 7.282 0 0 0-1.81 13.89l63.53 27.41-62.54 54.89a7.285 7.285 0 0 0-1.95 8.21 7.28 7.28 0 0 0 6.75 4.55h.36l74.84-3.63c4.02-.2 7.12-3.61 6.92-7.63a7.287 7.287 0 0 0-7.63-6.92l-54 2.62 55.52-48.72a7.276 7.276 0 0 0 2.39-6.61 7.286 7.286 0 0 0-4.31-5.55L155 250.86l52.49-7.85c3.98-.59 6.72-4.3 6.13-8.28Zm57.44-25.44c0 31.86 25.92 57.78 57.78 57.78s57.78-25.92 57.78-57.78-25.92-57.78-57.78-57.78-57.78 25.92-57.78 57.78Zm101 0c0 23.83-19.39 43.21-43.21 43.21s-43.21-19.39-43.21-43.21 19.39-43.21 43.21-43.21 43.21 19.39 43.21 43.21Z" fill="#ffca87"/></svg>