<svg xmlns="http://www.w3.org/2000/svg" version="1.1" viewBox="0 0 1210 150"><path d="M59.63 73.53 35.46 38.14H20.45v73.72h20.5V77.12l12.01 17.34h13.25l12.01-17.22v34.62h20.5V38.14H83.71L59.63 73.53zm91.62 9.13h31.79V65.89h-31.79V55.33h35V38.14h-55.7v73.72h56.32V94.67h-35.62V82.66zm129.18-35.1c-3.59-3.45-7.82-6.12-12.68-8.02-4.87-1.9-10.2-2.85-16-2.85s-11.13.95-16 2.85c-4.87 1.9-9.09 4.57-12.68 8.02a36.274 36.274 0 0 0-8.33 12.11c-1.97 4.63-2.95 9.7-2.95 15.22s1 10.53 3 15.22c2 4.69 4.81 8.77 8.44 12.22 3.62 3.45 7.87 6.14 12.73 8.08s10.2 2.9 16 2.9 11.01-.95 15.84-2.85c4.83-1.9 9.04-4.59 12.63-8.08 3.59-3.48 6.37-7.56 8.33-12.22 1.97-4.66 2.95-9.71 2.95-15.17s-.98-10.61-2.95-15.27c-1.97-4.66-4.75-8.71-8.33-12.17Zm-12.11 38c-1.52 3.04-3.69 5.38-6.52 7.04-2.83 1.66-6.18 2.49-10.04 2.49-2.9 0-5.5-.47-7.82-1.4-2.31-.93-4.3-2.28-5.95-4.04-1.66-1.76-2.92-3.88-3.78-6.37-.86-2.49-1.29-5.28-1.29-8.39 0-4.07.76-7.61 2.28-10.61 1.52-3 3.69-5.31 6.52-6.94 2.83-1.62 6.18-2.43 10.04-2.43 2.9 0 5.5.47 7.82 1.4 2.31.93 4.3 2.28 5.95 4.04 1.66 1.76 2.92 3.87 3.78 6.32.86 2.45 1.29 5.19 1.29 8.23 0 4.07-.76 7.63-2.28 10.66Zm114.14-7.12-11.47-40.3h-17.08l-11.42 40.12-11.56-40.12h-20.61l23.19 73.72h17.19l11.7-41.02 11.7 41.02h17.19l23.19-73.72h-20.4l-11.62 40.3zm136.48 6.11-27.43-45.17h-8.29v72.48h11.91V65.45l19.67 32.33h8.28l19.68-32.33v46.41h11.9V39.38h-8.28l-27.44 45.17zm130.2-35.38c-3.38-3.42-7.3-6.07-11.75-7.97-4.45-1.9-9.27-2.85-14.44-2.85s-9.99.95-14.44 2.85c-4.45 1.9-8.35 4.56-11.7 7.97-3.35 3.42-5.97 7.37-7.87 11.85-1.9 4.49-2.85 9.32-2.85 14.49s.95 10.03 2.85 14.55c1.9 4.52 4.54 8.49 7.92 11.91s7.32 6.09 11.8 8.02c4.49 1.93 9.32 2.9 14.5 2.9s9.89-.97 14.34-2.9c4.45-1.93 8.35-4.59 11.7-7.97 3.35-3.38 5.97-7.33 7.87-11.85 1.9-4.52 2.85-9.37 2.85-14.55s-.95-10.02-2.85-14.55c-1.9-4.52-4.54-8.49-7.92-11.91Zm-4.61 39.86c-2.11 3.9-5 6.95-8.7 9.16-3.69 2.21-7.99 3.31-12.89 3.31-3.59 0-6.9-.64-9.94-1.92-3.04-1.28-5.64-3.05-7.82-5.33-2.17-2.28-3.87-5.02-5.07-8.23-1.21-3.21-1.81-6.71-1.81-10.51 0-5.11 1.05-9.59 3.16-13.46 2.1-3.87 5-6.88 8.7-9.06 3.69-2.17 7.95-3.26 12.79-3.26 3.66 0 6.99.62 9.99 1.86 3 1.24 5.61 3.02 7.82 5.33s3.92 5.04 5.12 8.18c1.21 3.14 1.81 6.61 1.81 10.41 0 5.11-1.05 9.61-3.16 13.51Zm69.66 3.24-20.62-52.89h-12.94l29.3 72.48h8.29l29.5-72.48h-12.73l-20.8 52.89zm73.6-12.2h33.34V69.62h-33.34V50.26h36.34V39.38h-48.25v72.48h48.77v-10.87h-36.86V80.07zm104.35 4.48-27.43-45.17h-8.29v72.48h11.91V65.45L888 97.78h8.28l19.68-32.33v46.41h11.9V39.38h-8.28l-27.44 45.17zm83.01-4.48h33.33V69.62h-33.33V50.26h36.34V39.38h-48.25v72.48H1012v-10.87h-36.85V80.07zm115.22 9.33-38.31-50.02h-8.28v72.48h11.91V61.85l38.3 50.01h8.29V39.38h-11.91V89.4zm99.18-50.02h-59.11v10.88h23.6v61.6h11.91v-61.6h23.6V39.38z" fill="#ffca87"/></svg>